# xmcd
#
# Track frame offsets: 
#        150
#        15995
#        34997
#        56370
#        79205
#        96792
#        120237
#        138020
#        158172
#        176685
#        192665
#        210610
#        227102
#        245742
#        263455
#        285810
#
# Disc length: 4052 seconds
#
# Revision: 1
# Processed by: cddbd v1.5.2PL0 Copyright (c) Steve Scherf et al.
# Submitted via: ExactAudioCopy v0.99pb4
#
DISCID=cb0fd210
DTITLE=Huey Lewis And The News - The Greatest
DYEAR=1998
DGENRE=Rock
TTITLE0=Do You Believe In Love
TTITLE1=Hear And Soul
TTITLE2=I Want A New Drug
TTITLE3=The Heart Of Rock and Roll
TTITLE4=If This Is It
TTITLE5=Walking On A Thin Line
TTITLE6=Power Of Love
TTITLE7=Stuck With You
TTITLE8=Hip To Be Square
TTITLE9=Jacob's Ladder
TTITLE10=I Know What I Like
TTITLE11=Doing It (All For My Baby)
TTITLE12=Perfect World 
TTITLE13=Small World (Part One)
TTITLE14=Couple Days Off
TTITLE15=It Hit Me A Hammer
EXTD=
EXTT0=
EXTT1=
EXTT2=
EXTT3=
EXTT4=
EXTT5=
EXTT6=
EXTT7=
EXTT8=
EXTT9=
EXTT10=
EXTT11=
EXTT12=
EXTT13=
EXTT14=
EXTT15=
PLAYORDER=
